<?xml version="1.0" encoding="UTF-8"?>
<svg id="Layer_1" xmlns="http://www.w3.org/2000/svg" version="1.1" viewBox="0 0 566.93 566.93">
  <!-- Generator: Adobe Illustrator 30.2.1, SVG Export Plug-In . SVG Version: 2.1.1 Build 1)  -->
  <defs>
    <style>
      .st0 {
        fill: #214f26;
      }

      .st1 {
        fill: #2e3192;
        font-family: PlayfairDisplay-Regular, 'Playfair Display';
        font-size: 30px;
      }

      .st2 {
        fill: #40b549;
      }

      .st3 {
        fill: none;
        stroke: #fbb040;
        stroke-miterlimit: 10;
        stroke-width: 2px;
      }

      .st4 {
        fill: #f15a29;
      }

      .st5 {
        fill: #fbb040;
      }
    </style>
  </defs>
  <path class="st3" d="M184.94,170.76c2.03-3.5,4.18-7.07,7.43-9.52,8.14-6.14,19.79-3.11,28.91,1.25,29.42,14.08,52.81,39.77,63.87,70.16-27,27.5-65.12,40.76-101.75,53.11-10.6,3.57-25.5,5.07-30.39-7.67-3.32-8.66.57-23.55,1.84-32.49,3.79-26.77,16.57-51.59,30.1-74.84Z"/>
  <path class="st5" d="M252.88,195.5c-10.09-5.74-20.17-11.48-30.26-17.22-8.87-5.05-18.2-10.25-28.45-11.68-5.86-.82-11.57-.23-17.01,2.14-1,.44-1.41,1.85-1.15,2.82,2.04,7.69,10.9,10.39,17.27,13.43,7.83,3.74,15.5,7.82,22.99,12.22,14.75,8.67,28.78,18.57,41.84,29.61,3.27,2.77,6.49,5.61,9.64,8.51,2.47,2.28,6.28,5.08,6.81,8.67.17,1.13-.43,2.2-1.28,2.58-.98.44-2.28.2-3.52-.19-3.54-1.13-6.43-3.89-9.25-6.19-13.96-11.41-27.02-23.96-41.8-34.34-13.2-9.27-30.1-17.27-46.58-13.34-2.01.48-3.94,1.18-5.84,1.99-.72.3-1.32,1.39-1.24,2.16,1.13,10,12.36,13.71,20.06,17.68,9.81,5.06,19.37,10.59,28.64,16.57s18.01,12.22,26.53,18.97c2.17,1.72,4.32,3.47,6.45,5.24.98.81,1.95,1.63,2.92,2.46.72.61,1.92,1.39,2.3,2.3.61,1.46-1.6,2.45-2.78,2.49-2.47.1-4.88-1.64-6.91-2.85-9.7-5.76-19.05-12.09-28-18.96s-16.45-14.51-25.88-19.97c-9.02-5.22-20.83-8.01-30.61-3.14-2.59,1.29-4.01,3.7-3.32,6.6.51,2.12,1.66,4.25,2.88,6.04,2.55,3.74,6.01,6.69,9.79,9.13s7.65,4.28,11.63,6.1c4.99,2.28,9.97,4.59,14.87,7.07,10.08,5.1,19.9,10.73,29.39,16.86,2.34,1.51,4.66,3.05,6.95,4.62l-1.15-2.82c-.51,1.51-1.92,2.23-3.77,2.62s-4.06.24-5.93-.16c-5.52-1.19-10.85-3.57-15.87-6.11-10.52-5.33-20.23-12.15-30.94-17.13-2.8-1.3-5.66-2.5-8.58-3.49-3.18-1.09-6.52-1.88-9.88-1.22-2.81.55-5.5,2.5-6.7,5.13-1.36,2.97-.52,5.98,1.5,8.41,1.85,2.23,4.41,4.01,6.81,5.6s4.7,2.86,7.14,4.13c5,2.62,10.17,4.97,14.87,8.1,1.23.82,2.42,1.69,3.54,2.65.44.37,2.32,1.71,2.17,2.34-.09.39-.98.77-1.29.95-.62.36-1.26.7-1.92.97-1.23.51-2.54.85-3.85,1.08-5.3.95-11.15-.62-15.11-4.29-2.36-2.19-5.9,1.34-3.54,3.54,4.17,3.87,9.71,5.94,15.38,5.99,2.71.02,5.49-.41,8.04-1.35,2.67-.99,6.11-2.5,7.07-5.43,1.14-3.48-1.9-6.14-4.33-8.08s-4.76-3.47-7.32-4.94c-5.14-2.94-10.59-5.31-15.69-8.32-2.39-1.41-4.73-2.96-6.81-4.81-1.58-1.41-3.33-3.25-1.63-5.24,1.88-2.2,5.08-1.85,7.59-1.2,3.04.79,6.01,2,8.88,3.28,11.15,5.02,21.17,12.13,32.06,17.64,3.11,1.57,6.29,3.02,9.54,4.25,2.92,1.11,5.97,2.19,9.08,2.64,5.52.79,12.27-.22,14.3-6.22.37-1.1-.26-2.22-1.15-2.82-9.27-6.32-18.85-12.16-28.73-17.49-4.98-2.69-10.02-5.24-15.13-7.66-4.31-2.04-8.71-3.91-12.97-6.07-3.74-1.9-7.46-4.03-10.56-6.88-1.45-1.33-2.77-2.79-3.82-4.45-.55-.87-1.06-1.78-1.47-2.73-.23-.53-.73-1.49-.45-1.93.39-.61,2-1.02,2.64-1.24,1.2-.41,2.43-.71,3.68-.91,2.33-.37,4.79-.32,7.12,0,5.16.7,9.98,2.8,14.37,5.51s8.41,6.03,12.37,9.35c4.3,3.61,8.65,7.14,13.12,10.54,8.85,6.73,18.1,12.95,27.68,18.61,4.46,2.63,10.22,5.02,14.59.83,1.84-1.77,2.64-4.41,1.69-6.83s-3.37-4.1-5.33-5.75c-8.36-7.03-17.06-13.66-26.04-19.87s-18.19-11.93-27.69-17.24c-4.72-2.64-9.51-5.16-14.35-7.57-3.79-1.89-7.96-3.64-10.92-6.78-1.12-1.19-2.05-2.69-2.24-4.34l-1.24,2.16c15.41-6.52,32.81,1.46,45.6,10.12,15.13,10.25,28.28,23.09,42.39,34.63,3.15,2.58,6.26,5.41,10.05,7.02,3.33,1.41,7.36,1.91,10.28-.66,3.31-2.9,2.82-7.47.74-10.92s-5.6-6.35-8.68-9.14c-13.05-11.8-27.13-22.48-42-31.88-7.4-4.67-14.99-9.03-22.76-13.05-3.89-2.01-7.82-3.94-11.8-5.78-3.21-1.49-6.81-2.82-9.45-5.25-1.13-1.04-1.96-2.21-2.35-3.7l-1.15,2.82c8.6-3.75,18.39-1.25,26.59,2.34,4.54,1.99,8.87,4.38,13.17,6.83,4.83,2.75,9.65,5.49,14.48,8.24,5.48,3.12,10.95,6.23,16.43,9.35,2.8,1.59,5.32-2.72,2.52-4.32h0Z"/>
  <path class="st5" d="M251.88,198.8c-7.96-4.59-15.91-9.18-23.87-13.77-2.79-1.61-5.31,2.71-2.52,4.32,7.96,4.59,15.91,9.18,23.87,13.77,2.79,1.61,5.31-2.71,2.52-4.32h0Z"/>
  <path class="st4" d="M252.4,201.44c-8.55-8.18-18.33-15.08-28.91-20.36-5.31-2.65-10.83-4.93-16.48-6.79-2.76-.91-5.55-1.71-8.37-2.41s-5.48-1.42-8.27-1.46c-2.41-.03-5,.5-6.79,2.22-2.06,1.97-2.38,5.01-1.19,7.52s3.63,4.23,5.93,5.51c2.79,1.55,5.63,3,8.42,4.56,11.19,6.22,22.07,13,32.58,20.3s20.52,15.03,30.19,23.31c1.51,1.29,10.87,8.67,6.09,10.59-.4.16-1.35.17-2.03.05-1.16-.21-2.26-.65-3.29-1.21-2.48-1.33-4.73-3.19-6.93-4.95-18.98-15.2-35.02-36.96-60.23-41.96-5.21-1.03-11.27-1.73-16.39.11-2.36.85-4.64,2.19-5.98,4.38s-1.47,5.03-.38,7.41c2.03,4.39,7.44,6.17,11.61,7.77,5.88,2.25,11.09,5.95,16.14,9.63,11.35,8.27,22.66,16.59,33.99,24.88,2.88,2.11,5.76,4.22,8.64,6.33.37.27,2.26,1.32,2.32,1.91,0-.09.04-.32-.07,0-.09.24-.58.61-.79.77-.38.3-.84.57-1.29.76-5.05,2.13-10.13-1.49-13.77-4.64-10.02-8.71-20.17-17.15-31.02-24.83-9.13-6.45-22.2-17.03-33.73-9.9-4.51,2.79-7.92,8.12-6.22,13.54s7.52,8.57,12.33,11.16c10.08,5.43,20.78,9.57,30.97,14.77,5.01,2.56,9.9,5.38,14.43,8.73,2.21,1.64,4.34,3.43,6.3,5.37.44.43,1.18,1.05.96,1.55-.4.91-2.49,1.29-3.3,1.47-5.7,1.28-11.43-1.74-15.87-5.01-4.9-3.6-9.22-7.86-14.42-11.07s-10.96-5.66-16.89-7.22c-2.96-.78-5.97-1.32-9.01-1.68s-5.99-.7-8.88-.21c-3.11.52-5.22,2.94-5.06,6.14.14,2.73,1.12,5.43,2.64,7.69,3.21,4.76,8.16,7.81,13.21,10.29,4.78,2.35,9.86,4.47,13.56,8.43l1.1-4.18c-6.06,1.86-12.88.39-17.46-4.04-2.31-2.24-5.85,1.29-3.54,3.54,5.83,5.64,14.58,7.7,22.33,5.33,1.83-.56,2.41-2.79,1.1-4.18-3.92-4.18-9.15-6.56-14.21-9.03-4.55-2.22-9.46-4.82-12.18-9.28-.59-.97-1.03-1.95-1.31-3.05-.13-.51-.51-1.96-.25-2.39.36-.57,1.98-.47,2.56-.47,1.56,0,3.13.1,4.68.24,5.82.52,11.61,2,17.01,4.24s10.34,5.34,14.83,9.03c4.78,3.93,9.4,8.16,15.22,10.48,5.21,2.07,12.51,2.77,17.13-1.07,2.71-2.25,2.55-5.68.38-8.23-1.78-2.09-4.05-3.86-6.2-5.55-8.93-6.98-19.21-11.75-29.48-16.41-5.16-2.34-10.32-4.66-15.36-7.25-2.47-1.27-4.93-2.57-7.28-4.05-1.98-1.24-4.15-2.79-5.1-5.02-1.78-4.21,2.43-8.23,6.15-9.44,5.49-1.78,11.3,1.16,15.88,3.99,10.95,6.75,21.29,14.74,31.13,22.99,2.5,2.09,4.96,4.22,7.39,6.39,2.28,2.03,4.58,4.11,7.2,5.71,4.64,2.83,11.05,3.97,15.8.7,2.61-1.8,4.55-4.97,2.49-7.96-.85-1.24-2.1-2.07-3.3-2.95l-4.42-3.24c-5.63-4.12-11.26-8.24-16.88-12.36s-11.26-8.24-16.88-12.36c-5.13-3.75-10.19-7.69-15.77-10.77-2.62-1.44-5.35-2.55-8.13-3.64-1.91-.75-4.02-1.62-5.56-2.91-1.38-1.15-2.1-2.4-1.36-4.04.02-.05.27-.42.41-.59.29-.34.54-.56.84-.77.88-.63,1.86-1.02,2.88-1.32,4.9-1.4,10.74-.43,15.62.84,5.61,1.46,10.89,3.91,15.85,6.89,10.45,6.28,19.1,14.92,27.97,23.17,4.61,4.29,9.31,8.47,14.33,12.28,3.89,2.95,9.29,6.87,14.48,4.96,2.68-.99,4.55-3.51,4.58-6.4s-1.67-5.49-3.5-7.57c-1.96-2.23-4.41-4.09-6.67-6-2.41-2.04-4.84-4.05-7.3-6.03-9.88-7.97-20.15-15.47-30.76-22.45s-21.53-13.14-32.62-19.21c-1.47-.81-4.16-2.4-4.34-4.04s1.61-1.92,3.07-1.97c2.43-.09,4.78.59,7.18,1.17,2.82.69,5.62,1.48,8.38,2.38,10.95,3.55,21.32,8.78,30.74,15.4,4.55,3.2,8.82,6.75,12.84,10.59,2.33,2.22,5.87-1.31,3.54-3.54h0Z"/>
  <path class="st2" d="M219.16,158.35c1.2-9.39,2.52-20.31,9.21-27.61,5.15-5.61,14.47-9.42,21.39-4.81,4.28,2.85,6.14,8.2,7.32,12.95.42,1.7,2.26,2.14,3.67,1.49,9.37-4.28,20.85-9.35,30.94-4.27,4.03,2.03,7.09,5.56,7.6,10.16.54,4.94-1.44,9.97-4.69,13.64-3.9,4.4-9.2,7.27-14.66,9.29-2.19.81-2.55,4.16,0,4.82,5.56,1.44,11.33,1.7,16.9,3.09,4.44,1.12,8.73,3.19,11.31,7.14,1.11,1.7,1.84,3.59,1.74,5.65s-1.17,3.86-2.56,5.3c-1.62,1.68-3.58,2.94-5.58,4.12-2.43,1.44-4.91,2.79-7.43,4.07-5.79,2.95-11.78,5.46-17.94,7.56-1.28.44-2.12,1.72-1.75,3.08.34,1.24,1.79,2.18,3.08,1.75,6.19-2.11,12.24-4.62,18.1-7.54,5.08-2.53,10.71-5.18,14.79-9.22,4.12-4.08,5.38-9.73,3.04-15.07-2.16-4.93-6.71-8.52-11.63-10.43-6.63-2.57-13.91-2.53-20.74-4.3v4.82c11.35-4.19,22.88-12.55,23.1-25.84.1-6.06-2.83-11.46-7.74-14.93-4.56-3.23-10.53-4.53-16.06-4.17-7.92.5-15.23,3.74-22.35,7l3.67,1.49c-1.3-5.25-3.43-10.75-7.61-14.4-3.79-3.3-8.74-4.72-13.72-4.12s-9.96,2.93-13.87,6.34c-4.13,3.6-6.84,8.58-8.67,13.69-2.22,6.2-3.05,12.78-3.88,19.28-.17,1.34,1.27,2.5,2.5,2.5,1.49,0,2.33-1.15,2.5-2.5h0Z"/>
  <path class="st2" d="M301.22,149.93c-3.17-4.23-7.03-7.83-11.56-10.58-3.84-2.32-9.01-4.92-13.48-2.78-2.45,1.17-3.59,3.84-3.18,6.45.38,2.48,1.91,4.66,3.71,6.35,3.02,2.82,7.77,4.63,9.21,8.8.49,1.43.66,3.11-.9,3.89-1.73.87-3.83-.08-5.22-1.16-2.13-1.67-3.81-3.98-5.63-5.97-1.98-2.17-4.02-4.28-6.11-6.35-4.16-4.11-8.51-8.05-13.07-11.71-4.22-3.39-8.96-6.73-14.4-7.74-2.57-.48-5.5-.63-7.98.33-2.85,1.11-3.98,3.65-3.88,6.59.17,4.74,2.22,8.97,5.18,12.59s6.82,6.52,10.69,9.13c4.53,3.05,9.25,5.82,13.82,8.81,10,6.55,19.74,13.52,29.14,20.91,1.93,1.52,3.88,3.06,5.38,5.03,1.06,1.39,2.29,3.43,1.81,5.15s-2.32,2.46-4,2.47c-2.36.01-4.44-1.3-6.28-2.64-4.89-3.57-9.49-7.6-14.2-11.4s-9.83-7.92-14.75-11.88c-4.62-3.72-9.17-7.54-13.93-11.08-4.28-3.19-8.86-6.06-13.94-7.8-2.55-.87-5.21-1.37-7.9-1.54-1.35-.09-2.5,1.21-2.5,2.5,0,1.43,1.15,2.41,2.5,2.5,10.57.68,19.14,8.42,26.99,14.74,9.77,7.87,19.53,15.74,29.3,23.6,4.14,3.34,8.4,7.57,14,7.98,5.03.37,10.19-3.28,9.79-8.7-.38-5.09-4.4-9.03-8.17-12.01-4.7-3.7-9.46-7.32-14.31-10.83-9.33-6.75-19.03-12.85-28.69-19.1-3.8-2.46-7.53-5.14-10.54-8.56-2.52-2.86-4.74-6.81-4.39-10.76.16-1.81,3.29-1.43,4.57-1.32,2.46.21,4.83,1.18,6.97,2.36,4.86,2.67,9.08,6.51,13.17,10.2,4.31,3.88,8.43,7.97,12.34,12.26,3.49,3.83,7.03,8.76,12.78,8.73,2.61-.01,5.17-1.21,6.59-3.46,1.23-1.96,1.33-4.41.74-6.59s-1.95-4.42-3.64-6.03-3.72-2.82-5.56-4.24c-1.47-1.13-3.32-2.66-3.72-4.58-.08-.39-.13-.61,0-.99.05-.13.27-.38.12-.2.02-.02.35-.28.13-.13.51-.37,1.32-.4,2.18-.32,2,.18,3.9,1.22,5.7,2.23,2.1,1.18,4.09,2.56,5.9,4.15s3.48,3.33,4.91,5.25c.81,1.08,2.16,1.63,3.42.9,1.06-.62,1.71-2.33.9-3.42h0Z"/>
  <path class="st0" d="M298.56,154c-2.76-4.16-6.17-7.74-10.18-10.7-2.02-1.5-4.39-3.26-7.02-3.22-2.2.03-4.06,1.43-4.82,3.45-.63,1.68-.51,3.61-.02,5.31.58,2.02,1.77,3.48,2.93,5.18.62.9,2.51,3.36,1.35,4.43-1.05.97-2.88-.06-3.72-.85-1.67-1.58-2.91-3.62-4.32-5.41-1.54-1.95-3.17-3.82-4.89-5.61-3.45-3.59-7.24-6.83-11.29-9.73s-8.61-5.72-13.72-6.35c-4.69-.58-9.08,1.17-11.8,5.07-2.32,3.33-2.62,7.88.2,11.01,2.99,3.32,7.65,3.22,11.62,4.38,4.65,1.36,8.39,5.22,12.02,8.23,4.38,3.65,8.76,7.29,13.15,10.94s8.76,7.29,13.15,10.94c2.13,1.78,4.27,3.55,6.4,5.33,1.65,1.38,3.4,2.8,4.64,4.57,1.64,2.35,2.56,6.91-.81,8.01-2.02.65-4.39-.55-6.17-1.41-2.3-1.11-4.55-2.32-6.75-3.6-4.4-2.58-8.62-5.49-12.55-8.75s-7.76-6.97-11.64-10.45c-7.48-6.7-15.97-13.11-26.11-14.91-2.46-.44-4.94-.63-7.43-.48-3.2.19-3.22,5.2,0,5,9.73-.59,18.59,4.37,25.89,10.37,8.04,6.61,15.15,14.18,23.8,20.05,4.2,2.85,8.63,5.44,13.25,7.55s10.05,2.94,13.31-1.63c2.49-3.49,2.05-8.28-.15-11.78-2.63-4.19-7.06-7.17-10.81-10.29-8.7-7.24-17.4-14.48-26.1-21.72-3.89-3.24-7.74-7.05-12.28-9.38-2.05-1.05-4.19-1.65-6.44-2.08-1.8-.34-3.81-.58-5.41-1.55-1.34-.82-1.76-1.93-1.62-3.18.03-.25.31-1.18.52-1.58.4-.78.87-1.4,1.5-2,3.03-2.89,7.73-1.8,11.16-.13,4.3,2.09,8.25,5.11,11.85,8.24s6.99,6.67,9.98,10.46c2.79,3.53,5.46,8.23,10.63,8.06,2.37-.08,4.61-1.27,5.66-3.45s.5-4.78-.6-6.95c-.92-1.8-2.48-3.24-3.3-5.08-.01-.02-.2-.55-.27-.78-.03-.1-.23-.98-.19-.76-.04-.27-.05-1.01-.05-1.02-.02.16.32-.91.11-.48.21-.44.1-.12,0-.06.57-.38,0-.05.03-.05.51.05-.16-.12.27-.08,1.1.11,2.25,1.11,3.14,1.71,1.9,1.3,3.65,2.79,5.26,4.43s3.05,3.41,4.32,5.33c1.77,2.67,6.1.17,4.32-2.52h0Z"/>
  <text class="st1" transform="translate(294.64 269.43)"><tspan x="0" y="0">Hungry</tspan></text>
  <text class="st1" transform="translate(263.66 302.56)"><tspan x="0" y="0">Vegetable</tspan></text>
  <text class="st1" transform="translate(319.89 213.1)"><tspan x="0" y="0">The</tspan></text>
  <text class="st1" transform="translate(315.49 242.05)"><tspan x="0" y="0">Very</tspan></text>
</svg>